HIERARCHY
ROOT HipCenter
{
    OFFSET 0.0 0.0 -0.0
    CHANNELS 6 Xposition Yposition Zposition Zrotation Xrotation Yrotation
    JOINT Spine
    {
        OFFSET 0.0 30.569456100463867 0.0
        CHANNELS 3 Zrotation Xrotation Yrotation
        JOINT ShoulderCenter
        {
            OFFSET 0.0 22.458179473876953 0.0
            CHANNELS 3 Zrotation Xrotation Yrotation
            JOINT LeftShoulder
            {
                OFFSET 16.312541961669922 0.0 0.0
                CHANNELS 3 Zrotation Xrotation Yrotation
                JOINT LeftElbow
                {
                    OFFSET 22.379302978515625 0.0 0.0
                    CHANNELS 3 Zrotation Xrotation Yrotation
                    JOINT LeftWrist
                    {
                        OFFSET 19.033552169799805 0.0 0.0
                        CHANNELS 3 Zrotation Xrotation Yrotation
                        JOINT LeftHand
                        {
                            OFFSET 4.735348701477051 0.0 0.0
                            CHANNELS 3 Zrotation Xrotation Yrotation
                            End Site
                            {
                                OFFSET 1.8941397666931152 0.0 0.0
                            }
                        }
                    }
                }
            }
            JOINT RightShoulder
            {
                OFFSET -16.312541961669922 0.0 0.0
                CHANNELS 3 Zrotation Xrotation Yrotation
                JOINT RightElbow
                {
                    OFFSET -22.379302978515625 0.0 0.0
                    CHANNELS 3 Zrotation Xrotation Yrotation
                    JOINT RightWrist
                    {
                        OFFSET -19.033552169799805 0.0 0.0
                        CHANNELS 3 Zrotation Xrotation Yrotation
                        JOINT RightHand
                        {
                            OFFSET -4.735348701477051 0.0 0.0
                            CHANNELS 3 Zrotation Xrotation Yrotation
                            End Site
                            {
                                OFFSET -1.8941397666931152 0.0 0.0
                            }
                        }
                    }
                }
            }
            End Site
            {
                OFFSET 0.0 8.983271598815918 0.0
            }
        }
    }
    JOINT LeftHip
    {
        OFFSET 7.986269950866699 0.0 0.0
        CHANNELS 3 Zrotation Xrotation Yrotation
        JOINT LeftKnee
        {
            OFFSET 0.0 -31.449081420898438 0.0
            CHANNELS 3 Zrotation Xrotation Yrotation
            JOINT LeftAnkle
            {
                OFFSET 0.0 -30.70502471923828 0.0
                CHANNELS 3 Zrotation Xrotation Yrotation
                JOINT LeftFoot
                {
                    OFFSET 0.0 -10.848640441894531 0.0
                    CHANNELS 3 Zrotation Xrotation Yrotation
                    End Site
                    {
                        OFFSET 0.0 0.0 4.339455604553223
                    }
                }
            }
        }
    }
    JOINT RightHip
    {
        OFFSET -7.986269950866699 0.0 0.0
        CHANNELS 3 Zrotation Xrotation Yrotation
        JOINT RightKnee
        {
            OFFSET 0.0 -31.449081420898438 0.0
            CHANNELS 3 Zrotation Xrotation Yrotation
            JOINT RightAnkle
            {
                OFFSET 0.0 -30.70502471923828 0.0
                CHANNELS 3 Zrotation Xrotation Yrotation
                JOINT RightFoot
                {
                    OFFSET 0.0 -10.848640441894531 0.0
                    CHANNELS 3 Zrotation Xrotation Yrotation
                    End Site
                    {
                        OFFSET 0.0 0.0 4.339455604553223
                    }
                }
            }
        }
    }
}
MOTION
Frames: 4
Frame Time: 0.03333333333333333
-3.7369000911712646 -12.73539924621582 -271.4999084472656 0.15315475385671676 0.1657519620470117 -177.74470758905915 -0.04559526882560319 -1.604577082825602 -0.02000644046133423 8.307193688176398e-09 1.1609127080717615e-07 0.5210425610551871 -75.90193681724477 -39.345821521169725 8.018949411583366 -5.040612367825133e-06 2.7521291389837164e-06 15.15329810743793 1.3852787387104226e-05 -80.65112007220904 29.16383617993745 6.3611093629270335e-15 1.5902773407317584e-15 -8.827812596100317e-32 68.31179089612205 13.218717062080984 -8.13493883162194 4.1526054379961895e-06 2.511387878067382e-06 -60.54413814353655 -1.0826633861467808e-06 -59.105317023412454 -30.966672694010196 -1.2483078749173104e-31 -1.5902773407317584e-15 -8.995006208514008e-15 6.8479758866120255 -11.990500944233649 25.213195502619378 -0.26434802024705306 11.826265893442761 0.19265209474082867 33.60669714588973 44.781735031873204 -24.322540560790216 -2.385416011097637e-15 -6.361109362927033e-15 -1.3241718894150476e-31 -1.9527737265847478 -14.739405402831798 -24.859955319649536 -2.2960977370041227 11.800841311586547 -0.5799259014865618 -39.827218746421266 34.46635122402171 23.1362828225693 7.951386703658792e-16 -2.2069531490250793e-32 -3.1805546814635168e-15
-3.764199733734131 -12.731101036071777 -271.51220703125 0.135297423566073 0.15705650173724364 -177.7406194540002 -0.04826894309833843 -1.6109266704578995 -0.01811036354661178 -2.9494511509158658e-08 -4.4727795181711304e-08 0.479895930807397 -75.95317820813003 -39.61045605092743 7.957204988876704 -1.8795098003512613e-06 2.1282790996607968e-06 15.348112808959282 8.506093224183263e-08 -81.67229225045037 32.86260790331335 0.0 0.0 0.0 64.9715941839769 12.71445134974899 -11.596515008378391 4.988015214234996e-06 1.7642948925861026e-06 -72.86840533215295 6.788181577478421e-07 -19.406915851673816 -19.467402499268168 6.3611093629270335e-15 -3.1805546814635168e-15 -3.1805546814635168e-15 6.84037751280166 -11.982331188683025 25.23228390800844 -0.3159357924343769 11.894346239070632 0.1913939590514625 33.88450703700797 44.87712277547864 -24.59797871640187 1.5902773407317584e-15 1.1034765745125397e-32 7.951386703658792e-16 -2.0221149378288024 -14.719141708858224 -24.865298795728595 -2.29314867861654 11.870139625154385 -0.582358863600352 -39.691983348927145 34.374885846008375 22.990570501460365 7.951386703658792e-16 1.1034765745125397e-32 1.5902773407317584e-15
-3.8453001976013184 -12.718899726867676 -271.5472106933594 0.15364354312461193 0.1741002358886519 -177.8374710725085 -0.05185008349084264 -1.6228277306896557 -0.017357131272651087 -1.5015105652784303e-09 -3.923048412506757e-08 0.4780583570806883 -75.76054871886492 -40.66481469073304 8.013653721860026 2.104506985107489e-06 4.593628095729568e-06 15.502930320672379 -179.99998265088166 -75.71303342907996 -158.5285662231878 0.0 1.5902773407317584e-15 0.0 62.15994318309516 21.236137693659263 -13.68705201808517 -1.1181813758385307e-06 -1.7775157975255196e-08 -90.76512558461386 -7.689745731064725e-06 -70.52978409891084 -16.162063630331282 3.9756933518293955e-16 -1.987846675914698e-16 -7.55381736847585e-15 6.811919085906946 -11.85833134339947 25.25916998613729 -0.3399998805185892 11.815234828073853 0.18519796791398424 33.580864797152145 44.836747135658406 -24.350688203910305 7.951386703658792e-16 -1.6552148617688095e-32 -2.3854160110976376e-15 -2.2304954816432154 -14.600054872809341 -24.89497633967002 -1.8933279731068038 11.810827413777206 -0.6196311147863769 -39.730143271364575 34.39049149085056 22.88365889220072 -4.770832022195277e-15 6.361109362927035e-15 -1.5902773407317584e-15
-3.944199800491333 -12.702099800109863 -271.57861328125 0.09540851358611273 0.17554193601113113 -177.93396237478774 -0.0567305375214204 -1.6323410376994376 -0.014674653076828668 -1.4837654765263387e-08 -1.1467874938150023e-07 0.4647896303324799 -75.60390524246164 -41.932546498547204 8.110455101282483 1.2929658474519791e-06 -4.6889143162149816e-07 15.336536248779417 -179.99997651877766 -86.56997110794137 -157.26870053240035 6.3611093629270335e-15 0.0 0.0 53.789932520939715 25.928920554782522 -20.69307799618855 -3.0842770195218973e-06 -2.708551342758501e-07 -97.07140002211823 -5.915763777480758e-06 -65.23508889629301 -16.445858722407976 -3.1805546814635176e-15 4.4139062980501586e-32 -1.5902773407317588e-15 6.550295386927871 -11.764059892771163 25.223073290840908 -0.13159602036722565 11.702149018941022 0.16060323533996873 33.83658641118131 45.27837931887067 -24.820872607591447 0.0 0.0 -7.951386703658792e-16 -2.4280798476861354 -14.588243730409015 -24.870167454717194 -1.7584381163237384 11.791245852613216 -0.6245452370418879 -39.472344455154236 34.76613919258276 22.864633402406938 0.0 0.0 -1.5902773407317584e-15
